<svg width="24" height="24" viewBox="0 0 24 24" fill="none" xmlns="http://www.w3.org/2000/svg">
<path d="M21.4153 21.4153C20.6357 22.1949 19.3565 22.1949 18.5768 21.4153L12 14.8187L5.42316 21.4153C4.64354 22.1949 3.36433 22.1949 2.58471 21.4153C1.8051 20.6357 1.8051 19.3565 2.58471 18.5768L9.18156 12L2.58471 5.42316C1.8051 4.64354 1.8051 3.36433 2.58471 2.58471C3.36433 1.8051 4.64354 1.8051 5.42316 2.58471L12 9.18132L18.5768 2.58471C19.3565 1.8051 20.6357 1.8051 21.4153 2.58471C22.1949 3.36433 22.1949 4.64354 21.4153 5.42316L14.8184 12L21.4153 18.5768C22.1949 19.3565 22.1949 20.6357 21.4153 21.4153Z" fill="#0A142F"/>
</svg>
