<svg width="20" height="20" viewBox="0 0 20 20" fill="none" xmlns="http://www.w3.org/2000/svg">
<path fill-rule="evenodd" clip-rule="evenodd" d="M16.2327 2.12183C17.1514 1.72281 18.1364 2.52414 17.9742 3.53868L16.058 15.5219C15.8733 16.6773 14.643 17.3403 13.6153 16.7645C12.7553 16.2827 11.4794 15.5411 10.3296 14.7661C9.75538 14.3791 7.99719 13.1382 8.2133 12.2548C8.39808 11.4995 11.3538 8.6616 13.0428 6.97388C13.7063 6.31093 13.4041 5.92794 12.6205 6.53834C10.6768 8.05254 7.5562 10.3547 6.52425 11.0026C5.61375 11.5742 5.13836 11.6718 4.57131 11.5742C3.53583 11.3963 2.57582 11.1207 1.79205 10.7856C0.732718 10.3326 0.784318 8.83102 1.79133 8.39374L16.2327 2.12183Z" fill="white"/>
</svg>
