<svg width="20" height="16" viewBox="0 0 20 16" fill="none" xmlns="http://www.w3.org/2000/svg">
<path d="M18 11.5V2.5C18 1.96957 17.7893 1.46086 17.4142 1.08579C17.0392 0.710714 16.5305 0.5 16 0.5H4.00002C3.46959 0.5 2.96088 0.710714 2.58581 1.08579C2.21073 1.46086 2.00002 1.96957 2.00002 2.5V11.5M18 11.5H2.00002M18 11.5L19.28 14.05C19.3571 14.203 19.3936 14.3732 19.386 14.5444C19.3784 14.7155 19.327 14.8818 19.2366 15.0274C19.1463 15.1729 19.0201 15.2928 18.8701 15.3756C18.7201 15.4584 18.5513 15.5012 18.38 15.5H1.62002C1.44871 15.5012 1.27997 15.4584 1.12997 15.3756C0.979966 15.2928 0.853742 15.1729 0.763397 15.0274C0.673052 14.8818 0.621616 14.7155 0.614021 14.5444C0.606425 14.3732 0.642925 14.203 0.720021 14.05L2.00002 11.5" stroke="white" stroke-linecap="round" stroke-linejoin="round"/>
</svg>
