<svg width="24" height="25" viewBox="0 0 24 25" fill="none" xmlns="http://www.w3.org/2000/svg">
<path d="M12 20.5C13.1046 20.5 14 19.6046 14 18.5C14 17.3954 13.1046 16.5 12 16.5C10.8954 16.5 10 17.3954 10 18.5C10 19.6046 10.8954 20.5 12 20.5Z" stroke="white" stroke-linecap="round" stroke-linejoin="round"/>
<path d="M7 8.5C8.10457 8.5 9 7.60457 9 6.5C9 5.39543 8.10457 4.5 7 4.5C5.89543 4.5 5 5.39543 5 6.5C5 7.60457 5.89543 8.5 7 8.5Z" stroke="white" stroke-linecap="round" stroke-linejoin="round"/>
<path d="M17 8.5C18.1046 8.5 19 7.60457 19 6.5C19 5.39543 18.1046 4.5 17 4.5C15.8954 4.5 15 5.39543 15 6.5C15 7.60457 15.8954 8.5 17 8.5Z" stroke="white" stroke-linecap="round" stroke-linejoin="round"/>
<path d="M7 8.5V10.5C7 11.0304 7.21071 11.5391 7.58579 11.9142C7.96086 12.2893 8.46957 12.5 9 12.5H15C15.5304 12.5 16.0391 12.2893 16.4142 11.9142C16.7893 11.5391 17 11.0304 17 10.5V8.5" stroke="white" stroke-linecap="round" stroke-linejoin="round"/>
<path d="M12 12.5V16.5" stroke="white" stroke-linecap="round" stroke-linejoin="round"/>
</svg>
