<svg width="21" height="20" viewBox="0 0 21 20" fill="none" xmlns="http://www.w3.org/2000/svg">
<mask id="mask0_727_284" style="mask-type:luminance" maskUnits="userSpaceOnUse" x="0" y="0" width="21" height="20">
<path d="M20.5 0H0.5V20H20.5V0Z" fill="white"/>
</mask>
<g mask="url(#mask0_727_284)">
<path d="M20.1 10.2274C20.1 9.51828 20.0364 8.83648 19.9182 8.18188H10.5V12.0501H15.8818C15.65 13.3001 14.9455 14.3592 13.8864 15.0683V17.5774H17.1182C19.0091 15.8365 20.1 13.2728 20.1 10.2274Z" fill="#4285F4"/>
<path d="M10.5 19.9999C13.2 19.9999 15.4636 19.1044 17.1181 17.5772L13.8863 15.0681C12.9909 15.6681 11.8454 16.0226 10.5 16.0226C7.8954 16.0226 5.6909 14.2635 4.9045 11.8999H1.5636V14.4908C3.2091 17.759 6.5909 19.9999 10.5 19.9999Z" fill="#34A853"/>
<path d="M4.9045 11.8999C4.7045 11.2999 4.5909 10.659 4.5909 9.99993C4.5909 9.34083 4.7045 8.69993 4.9045 8.09993V5.50903H1.5636C0.8864 6.85903 0.5 8.38633 0.5 9.99993C0.5 11.6135 0.8864 13.1408 1.5636 14.4908L4.9045 11.8999Z" fill="#FBBC04"/>
<path d="M10.5 3.9773C11.9681 3.9773 13.2863 4.4818 14.3227 5.4727L17.1909 2.6045C15.4591 0.9909 13.1954 0 10.5 0C6.5909 0 3.2091 2.2409 1.5636 5.5091L4.9045 8.1C5.6909 5.7364 7.8954 3.9773 10.5 3.9773Z" fill="#E94235"/>
</g>
</svg>
